# xmcd CD database file
#
# Track frame offsets:
#	150
#	17420
#	32608
#	47225
#	64545
#	80648
#	98775
#	113778
#	129685
#	145590
#	160598
#	179565
#	193528
#	212333
#	228208
#	246663
#
# Disc length: 3497 seconds
#
# Revision: 12
# Processed by: cddbd v1.5.2PL0 Copyright (c) Steve Scherf et al.
# Submitted via: CDex 1.79
#
DISCID=d10da710
DTITLE=Status Quo - Thirsty Work
DYEAR=1994
DGENRE=Rock
TTITLE0=Goin' Nowhere
TTITLE1=I Didn't Mean It
TTITLE2=Confidence
TTITLE3=Point Of No Return
TTITLE4=Sail Away
TTITLE5=Like It Or Not
TTITLE6=Soft In The Head
TTITLE7=Queenie
TTITLE8=Lover Of The Human Race
TTITLE9=Sherri Don't Fail Me Now!
TTITLE10=Rude Awakening Time
TTITLE11=Back On My Feet
TTITLE12=Restless
TTITLE13=Ciao-Ciao
TTITLE14=Tango
TTITLE15=Sorry
EXTD=YEAR: 1994
EXTT0=
EXTT1=
EXTT2=
EXTT3=
EXTT4=
EXTT5=
EXTT6=
EXTT7=
EXTT8=
EXTT9=
EXTT10=
EXTT11=
EXTT12=
EXTT13=
EXTT14=
EXTT15=
PLAYORDER=
